<?xml version="1.0" encoding="UTF-8" standalone="no"?>
<!DOCTYPE svg PUBLIC "-//W3C//DTD SVG 1.1//EN" "http://www.w3.org/Graphics/SVG/1.1/DTD/svg11.dtd">
<svg width="100%" height="100%" viewBox="0 0 32 32" version="1.1" xmlns="http://www.w3.org/2000/svg" xmlns:xlink="http://www.w3.org/1999/xlink" xml:space="preserve" xmlns:serif="http://www.serif.com/" style="fill-rule:evenodd;clip-rule:evenodd;stroke-linejoin:round;stroke-miterlimit:2;">
    <g>
        <g transform="matrix(0.0310878,0,0,0.0310878,3.56486,3.56487)">
            <path d="M740.183,327.131C725.417,278.623 698.597,240.856 662.614,217.911C621.98,191.998 585.258,186.573 549.132,188.707C553.229,183.203 557.1,177.403 560.715,171.27C587.388,126.003 594.607,75.109 598.485,47.767C598.914,44.739 599.299,42.028 599.663,39.683L605.846,0L567.197,10.933C564.915,11.578 562.269,12.286 559.318,13.08C532.646,20.234 482.999,33.551 441.288,65.503C416.526,84.472 398.291,107.389 386.823,133.601C353.902,87.57 313.62,70.633 311.095,69.608L291.704,117.344C292.288,117.581 343.142,138.993 366.518,205.545C347.713,203.629 329.927,200.436 312.524,197.304C255.237,187 201.125,177.265 137.386,217.912C101.404,240.856 74.581,278.624 59.817,327.132C46.914,369.524 43.059,420.255 48.669,473.843C55.751,541.494 77.317,609.774 109.397,666.113C145.279,729.13 191.328,772.603 242.564,791.834C258.142,797.681 272.035,799.998 284.59,799.998C312.224,799.997 333.335,788.752 351.402,779.125C367.715,770.433 381.802,762.927 400.001,762.927C418.199,762.927 432.287,770.434 448.599,779.125C474.876,793.125 507.577,810.552 557.44,791.834C608.675,772.605 654.724,729.13 690.606,666.113C722.686,609.777 744.253,541.494 751.334,473.843C756.941,420.255 753.086,369.523 740.183,327.131ZM472.621,106.404C494.513,89.634 520.494,78.867 542.365,71.678C537.872,94.259 530.327,121.351 516.324,145.115C495.366,180.681 464.993,200.57 423.871,205.482C423.779,164.07 439.851,131.508 472.621,106.404ZM700.088,468.477C693.731,529.197 674.461,590.333 645.83,640.614C615.978,693.036 579.152,728.645 539.332,743.591C511.26,754.13 495.969,745.981 472.827,733.649C454.223,723.736 431.068,711.397 400.001,711.397C368.934,711.397 345.779,723.735 327.174,733.649C304.029,745.98 288.742,754.125 260.67,743.591C220.85,728.645 184.023,693.036 154.172,640.614C125.54,590.332 106.27,529.197 99.914,468.477C89.742,371.295 114.104,293.865 165.09,261.354C211.84,231.543 250.246,238.454 303.406,248.015C331.635,253.093 363.631,258.849 400.004,258.849C436.377,258.849 468.373,253.093 496.602,248.015C549.763,238.453 588.168,231.545 634.918,261.354C685.896,293.865 710.261,371.296 700.088,468.477Z" style="fill:rgb(108,181,35);fill-rule:nonzero;"/>
        </g>
        <g transform="matrix(0.0310878,0,0,0.0310878,3.56486,3.56487)">
            <path d="M219.542,269.112C190.32,283.723 169.493,310.935 157.167,331.193C141.553,356.854 130.425,386.102 125.828,413.546L176.643,422.055C184.089,377.588 213.67,329.651 242.582,315.195L219.542,269.112Z" style="fill:rgb(108,181,35);fill-rule:nonzero;"/>
        </g>
    </g>
</svg>
