<?xml version="1.0" encoding="UTF-8" standalone="no"?>
<!DOCTYPE svg PUBLIC "-//W3C//DTD SVG 1.1//EN" "http://www.w3.org/Graphics/SVG/1.1/DTD/svg11.dtd">
<svg width="100%" height="100%" viewBox="0 0 32 32" version="1.1" xmlns="http://www.w3.org/2000/svg" xmlns:xlink="http://www.w3.org/1999/xlink" xml:space="preserve" xmlns:serif="http://www.serif.com/" style="fill-rule:evenodd;clip-rule:evenodd;stroke-linejoin:round;stroke-miterlimit:2;">
    <g transform="matrix(0.0344828,0,0,7,14.931,-18)">
        <g transform="matrix(29.9999,0,0,0.285714,-463.999,2)">
            <rect x="2" y="6" width="29" height="1" style="fill:rgb(34,34,34);"/>
        </g>
        <g transform="matrix(29.9999,0,0,0.285714,-463.999,3.14286)">
            <rect x="2" y="6" width="29" height="1" style="fill:rgb(34,34,34);"/>
        </g>
        <g transform="matrix(29.9999,0,0,0.285714,-463.999,4.28571)">
            <rect x="2" y="6" width="29" height="1" style="fill:rgb(34,34,34);"/>
        </g>
        <g transform="matrix(2,0,0,1,-118,-3.28571)">
            <rect x="2" y="6" width="29" height="1" style="fill:rgb(34,34,34);"/>
        </g>
        <g transform="matrix(2,0,0,1,143,-2.14286)">
            <rect x="2" y="6" width="29" height="1" style="fill:rgb(34,34,34);"/>
        </g>
        <g transform="matrix(2,0,0,1,259.001,-1)">
            <rect x="2" y="6" width="29" height="1" style="fill:rgb(34,34,34);"/>
        </g>
        <g transform="matrix(2,0,0,1,-262.999,-1)">
            <rect x="2" y="6" width="29" height="1" style="fill:rgb(34,34,34);"/>
        </g>
        <g transform="matrix(2,0,0,1,-2,0)">
            <rect x="2" y="6" width="29" height="1" style="fill:rgb(34,34,34);"/>
        </g>
        <g transform="matrix(29,0,0,0.142857,-432.998,2.57143)">
            <path d="M32,0L32,32L0,32L0,0L32,0ZM30,2L2,2L2,30L30,30L30,2Z" style="fill:rgb(34,34,34);"/>
        </g>
    </g>
</svg>
