<?xml version="1.0" encoding="UTF-8" standalone="no"?>
<!DOCTYPE svg PUBLIC "-//W3C//DTD SVG 1.1//EN" "http://www.w3.org/Graphics/SVG/1.1/DTD/svg11.dtd">
<svg width="100%" height="100%" viewBox="0 0 32 32" version="1.1" xmlns="http://www.w3.org/2000/svg" xmlns:xlink="http://www.w3.org/1999/xlink" xml:space="preserve" xmlns:serif="http://www.serif.com/" style="fill-rule:evenodd;clip-rule:evenodd;stroke-linejoin:round;stroke-miterlimit:2;">
    <g transform="matrix(1.25175,0,0,1.25175,0.987733,1.60672)">
        <path d="M11.999,18.88L6.293,21.88C5.956,22.057 5.548,22.028 5.24,21.804C4.932,21.58 4.778,21.201 4.842,20.826L5.932,14.472L1.309,9.972C1.037,9.706 0.938,9.308 1.056,8.946C1.174,8.584 1.487,8.32 1.864,8.265L8.243,7.341L11.096,1.559C11.265,1.218 11.612,1.002 11.993,1.002C12.374,1.002 12.721,1.218 12.89,1.559C12.89,1.559 15.743,7.341 15.743,7.341L22.122,8.265C22.499,8.32 22.812,8.584 22.93,8.946C23.048,9.308 22.949,9.706 22.677,9.972L18.054,14.472L19.144,20.826C19.208,21.201 19.054,21.581 18.745,21.804C18.437,22.028 18.029,22.057 17.692,21.88L11.999,18.88ZM12.466,16.865L16.829,19.165L15.993,14.291C15.938,13.966 16.045,13.635 16.281,13.405L19.828,9.954L14.936,9.245C14.61,9.197 14.328,8.993 14.182,8.698C14.182,8.698 11.993,4.262 11.993,4.262L9.804,8.698C9.658,8.993 9.376,9.197 9.05,9.245L4.158,9.954L7.705,13.405C7.941,13.635 8.048,13.966 7.993,14.291L7.156,19.167L11.535,16.865C11.826,16.712 12.175,16.712 12.466,16.865Z" style="fill:rgb(239,195,22);"/>
    </g>
</svg>
